<?xml version="1.0" encoding="UTF-8" standalone="no"?>
<!-- Created with Inkscape (http://www.inkscape.org/) -->

<svg
   width="512"
   height="512"
   viewBox="0 0 512 512"
   version="1.1"
   id="svg1"
   sodipodi:docname="Фейк.svg"
   inkscape:version="1.3 (0e150ed6c4, 2023-07-21)"
   xmlns:inkscape="http://www.inkscape.org/namespaces/inkscape"
   xmlns:sodipodi="http://sodipodi.sourceforge.net/DTD/sodipodi-0.dtd"
   xmlns="http://www.w3.org/2000/svg"
   xmlns:svg="http://www.w3.org/2000/svg">
  <sodipodi:namedview
     id="namedview1"
     pagecolor="#505050"
     bordercolor="#eeeeee"
     borderopacity="1"
     inkscape:showpageshadow="0"
     inkscape:pageopacity="0"
     inkscape:pagecheckerboard="0"
     inkscape:deskcolor="#505050"
     inkscape:document-units="px"
     inkscape:zoom="0.70710678"
     inkscape:cx="680.94383"
     inkscape:cy="318.90516"
     inkscape:window-width="1920"
     inkscape:window-height="991"
     inkscape:window-x="-9"
     inkscape:window-y="-9"
     inkscape:window-maximized="1"
     inkscape:current-layer="svg1" />
  <defs
     id="defs1" />
  <path
     d="m 256,63.59766 a 192.40221,192.40221 0 0 0 -27.38163,1.95814 192.40221,192.40221 0 0 0 -26.8238,5.83562 192.40221,192.40221 0 0 0 -25.72102,9.59343 192.40221,192.40221 0 0 0 -24.09434,13.15561 192.40221,192.40221 0 0 0 -21.97615,16.45097 192.40221,192.40221 0 0 0 -19.41163,19.41163 192.40221,192.40221 0 0 0 -16.450969,21.97615 192.40221,192.40221 0 0 0 -13.15561,24.09434 192.40221,192.40221 0 0 0 -9.593433,25.72102 192.40221,192.40221 0 0 0 -5.835617,26.8238 A 192.40221,192.40221 0 0 0 63.597659,256 a 192.40221,192.40221 0 0 0 1.958142,27.38163 192.40221,192.40221 0 0 0 5.835617,26.8238 192.40221,192.40221 0 0 0 9.593433,25.72102 192.40221,192.40221 0 0 0 13.15561,24.09434 192.40221,192.40221 0 0 0 16.450969,21.97615 192.40221,192.40221 0 0 0 19.41163,19.41163 192.40221,192.40221 0 0 0 21.97615,16.45098 192.40221,192.40221 0 0 0 24.09434,13.1556 192.40221,192.40221 0 0 0 25.72102,9.59343 192.40221,192.40221 0 0 0 26.8238,5.83563 192.40221,192.40221 0 0 0 27.38163,1.95813 192.40221,192.40221 0 0 0 9.44144,-0.23122 192.40221,192.40221 0 0 0 9.4172,-0.6953 192.40221,192.40221 0 0 0 9.3719,-1.15612 192.40221,192.40221 0 0 0 9.30562,-1.61374 192.40221,192.40221 0 0 0 9.21346,-2.0697 192.40221,192.40221 0 0 0 9.10188,-2.51923 192.40221,192.40221 0 0 0 8.96767,-2.96228 192.40221,192.40221 0 0 0 8.80921,-3.39885 192.40221,192.40221 0 0 0 8.63457,-3.82574 192.40221,192.40221 0 0 0 8.43408,-4.24613 192.40221,192.40221 0 0 0 8.2174,-4.65524 192.40221,192.40221 0 0 0 7.9781,-5.05139 192.40221,192.40221 0 0 0 7.72099,-5.43784 192.40221,192.40221 0 0 0 7.4445,-5.81137 192.40221,192.40221 0 0 0 7.15182,-6.16709 192.40221,192.40221 0 0 0 6.83975,-6.51151 192.40221,192.40221 0 0 0 6.51151,-6.83975 192.40221,192.40221 0 0 0 6.16709,-7.15182 192.40221,192.40221 0 0 0 5.81137,-7.4445 192.40221,192.40221 0 0 0 5.43784,-7.72099 192.40221,192.40221 0 0 0 5.05139,-7.9781 192.40221,192.40221 0 0 0 4.65524,-8.2174 192.40221,192.40221 0 0 0 4.24613,-8.43408 192.40221,192.40221 0 0 0 3.82574,-8.63457 192.40221,192.40221 0 0 0 3.39885,-8.81082 192.40221,192.40221 0 0 0 2.96228,-8.96606 192.40221,192.40221 0 0 0 2.51923,-9.10188 192.40221,192.40221 0 0 0 2.0697,-9.21346 192.40221,192.40221 0 0 0 1.61374,-9.30562 192.40221,192.40221 0 0 0 1.15612,-9.3719 192.40221,192.40221 0 0 0 0.6953,-9.4172 192.40221,192.40221 0 0 0 0.23122,-9.44144 192.40221,192.40221 0 0 0 -0.23122,-9.44144 192.40221,192.40221 0 0 0 -0.6953,-9.4172 192.40221,192.40221 0 0 0 -1.15612,-9.3719 192.40221,192.40221 0 0 0 -1.61374,-9.30562 192.40221,192.40221 0 0 0 -2.0697,-9.21346 192.40221,192.40221 0 0 0 -2.51923,-9.10188 192.40221,192.40221 0 0 0 -2.96228,-8.96606 192.40221,192.40221 0 0 0 -3.39885,-8.81082 192.40221,192.40221 0 0 0 -3.82574,-8.63457 192.40221,192.40221 0 0 0 -4.24613,-8.43408 192.40221,192.40221 0 0 0 -4.65524,-8.2174 192.40221,192.40221 0 0 0 -5.05139,-7.9781 192.40221,192.40221 0 0 0 -5.43784,-7.72099 192.40221,192.40221 0 0 0 -5.81137,-7.4445 192.40221,192.40221 0 0 0 -6.16709,-7.15182 192.40221,192.40221 0 0 0 -6.51151,-6.83975 192.40221,192.40221 0 0 0 -6.83975,-6.51151 192.40221,192.40221 0 0 0 -7.15182,-6.16709 192.40221,192.40221 0 0 0 -7.4445,-5.81136 192.40221,192.40221 0 0 0 -7.72099,-5.43785 192.40221,192.40221 0 0 0 -7.9781,-5.05139 192.40221,192.40221 0 0 0 -8.2174,-4.65523 192.40221,192.40221 0 0 0 -8.43408,-4.24615 192.40221,192.40221 0 0 0 -8.63457,-3.82573 192.40221,192.40221 0 0 0 -8.81082,-3.39885 192.40221,192.40221 0 0 0 -8.96606,-2.96228 192.40221,192.40221 0 0 0 -9.10188,-2.51922 192.40221,192.40221 0 0 0 -9.21346,-2.06972 192.40221,192.40221 0 0 0 -9.30562,-1.61373 192.40221,192.40221 0 0 0 -9.3719,-1.15612 192.40221,192.40221 0 0 0 -9.4172,-0.6953 A 192.40221,192.40221 0 0 0 256,63.59766 Z m -23.50255,44.07192 h 47.44814 L 268.8597,316.71854 H 243.58334 Z M 256,349.31813 c 1.84768,0 3.63057,0.12691 5.34891,0.3816 1.71834,0.2547 3.37184,0.63706 4.96083,1.14642 1.58901,0.50939 3.11312,1.14557 4.57278,1.90964 1.45966,0.76407 2.85437,1.6557 4.1847,2.67445 0.70212,0.50938 1.36157,1.06595 1.97592,1.66871 0.61435,0.60277 1.18416,1.25229 1.71074,1.94844 0.52659,0.69616 1.00999,1.43864 1.44881,2.22817 0.43882,0.78955 0.83256,1.62661 1.18361,2.50953 0.35106,0.88293 0.65838,1.81134 0.92168,2.78764 0.2633,0.97631 0.48257,1.9993 0.6581,3.069 0.17553,1.06969 0.30839,2.18726 0.39615,3.35034 0.0877,1.16309 0.13098,2.37199 0.13098,3.62847 0,1.22251 -0.0433,2.40353 -0.13098,3.54115 -0.0877,1.1376 -0.22062,2.23295 -0.39615,3.28566 -0.17553,1.05272 -0.3948,2.06237 -0.6581,3.0302 -0.2633,0.96781 -0.57062,1.89339 -0.92168,2.77631 -0.35105,0.88292 -0.74479,1.72282 -1.18361,2.52084 -0.43882,0.79803 -0.92222,1.55386 -1.44881,2.26698 -0.52658,0.71313 -1.09639,1.38327 -1.71074,2.01151 -0.61435,0.62822 -1.2738,1.2143 -1.97592,1.75764 -1.33033,1.08667 -2.72504,2.03732 -4.1847,2.85232 -1.45966,0.815 -2.98377,1.49402 -4.57278,2.03737 -1.58899,0.54333 -3.24249,0.95075 -4.96083,1.22243 -1.71834,0.27166 -3.50123,0.40748 -5.34891,0.40748 -1.92159,0 -3.76917,-0.13582 -5.54294,-0.40748 -1.77377,-0.27168 -3.47395,-0.6791 -5.09991,-1.22243 -1.62595,-0.54335 -3.17708,-1.22237 -4.65523,-2.03737 -1.47815,-0.815 -2.88347,-1.76565 -4.21381,-2.85232 -0.66516,-0.54334 -1.2888,-1.12942 -1.87082,-1.75764 -0.58202,-0.62824 -1.12132,-1.29838 -1.6202,-2.01151 -0.49887,-0.71312 -0.95706,-1.46895 -1.3728,-2.26698 -0.41572,-0.79802 -0.78958,-1.63792 -1.12217,-2.52084 -0.33257,-0.88292 -0.62373,-1.8085 -0.87316,-2.77631 -0.24944,-0.96783 -0.45785,-1.97748 -0.62414,-3.0302 -0.33258,-2.10544 -0.49803,-4.3818 -0.49803,-6.82681 0,-2.51294 0.16545,-4.83943 0.49803,-6.97881 0.16629,-1.0697 0.3747,-2.09269 0.62414,-3.069 0.24943,-0.9763 0.54059,-1.90471 0.87316,-2.78764 0.33259,-0.88292 0.70645,-1.71998 1.12217,-2.50953 0.41574,-0.78953 0.87393,-1.53201 1.3728,-2.22817 0.49888,-0.69615 1.03818,-1.34567 1.6202,-1.94844 0.58202,-0.60276 1.20566,-1.15933 1.87082,-1.66871 1.33034,-1.01875 2.73566,-1.91038 4.21381,-2.67445 1.47815,-0.76407 3.02928,-1.40025 4.65523,-1.90964 1.62596,-0.50936 3.32614,-0.89172 5.09991,-1.14642 1.77377,-0.25469 3.62135,-0.3816 5.54294,-0.3816 z"
     style="fill:#ff2a2a;stroke-width:66.8015;stroke-linecap:round;stroke-linejoin:round"
     id="path9" />
</svg>
