<svg viewBox="0 0 12.7 12.7" xmlns:xlink="http://www.w3.org/1999/xlink" xmlns="http://www.w3.org/2000/svg"><defs><linearGradient id="b"><stop offset="0" stop-color="#ffd479"/><stop offset="1" stop-color="#fab31e"/></linearGradient><linearGradient id="a"><stop offset="0" stop-color="#fab31e"/><stop offset=".744" stop-color="#ffd479"/></linearGradient><linearGradient xlink:href="#a" id="c" x1=".292" y1="6.362" x2="12.498" y2="6.362" gradientUnits="userSpaceOnUse" gradientTransform="matrix(.93282 0 0 .93282 .344 .4)"/><linearGradient xlink:href="#b" id="d" x1=".292" y1="6.362" x2="12.498" y2="6.362" gradientUnits="userSpaceOnUse" gradientTransform="matrix(.93282 0 0 .93282 .344 .4)"/></defs><path d="M7.296.694C7.106.646 5.043 4.02 4.898 4.078 4.752 4.137.927 3.16.824 3.327.72 3.494 3.29 6.497 3.3 6.65c.01.155-2.105 3.496-1.98 3.645.125.15 3.781-1.37 3.93-1.333.15.037 2.677 3.086 2.857 3.012.18-.073-.135-4.017-.055-4.148.08-.132 3.76-1.593 3.746-1.788-.014-.195-3.86-1.114-3.96-1.233-.1-.119-.353-4.065-.542-4.112z" fill="url(#c)" stroke="url(#d)" stroke-width="1.148" stroke-linejoin="round" paint-order="stroke fill markers"/></svg>